name rise49.8558peak67.6521fall70.3087.mot
datacolumns 19
datarows 20
range 3.16998600000000 3.20165400000000
endheader
time	ground_force1_vx	ground_force1_vy	ground_force1_vz	ground_force1_px	ground_force1_py	ground_force1_pz	ground_force2_vx	ground_force2_vy	ground_force2_vz	ground_force2_px	ground_force2_py	ground_force2_pz	ground_torque1_x	ground_torque1_y	ground_torque1_z	ground_torque2_x	ground_torque2_y	ground_torque2_z	
3.16998600000000	-7.01471000000000	41.82503100000000	-10.96476300000000	0.32924100000000	0.00000000000000	0.05862600000000	-62.90519500000000	797.68047899999999	-52.52923800000000	0.10937900000000	0.00000000000000	-0.11792100000000	0.00000000000000	-7.87093100000000	0.00000000000000	0.00000000000000	-23.87261200000000	0.00000000000000	
3.17165600000000	-7.68979200000000	48.84274400000000	-12.37274300000000	0.33596800000000	0.00000000000000	0.05905200000000	-63.64009700000000	795.76124800000002	-52.21813000000000	0.10845800000000	0.00000000000000	-0.11790200000000	0.00000000000000	-8.98028300000000	0.00000000000000	0.00000000000000	-23.87313200000000	0.00000000000000	
3.17332300000000	-8.23140000000000	55.89855600000000	-13.66789800000000	0.34212200000000	0.00000000000000	0.05944900000000	-64.38494500000000	793.75319500000001	-51.89149100000000	0.10754800000000	0.00000000000000	-0.11788000000000	0.00000000000000	-10.02361800000000	0.00000000000000	0.00000000000000	-23.87560500000000	0.00000000000000	
3.17499000000000	-8.62048300000000	62.89644600000000	-14.82143200000000	0.34778400000000	0.00000000000000	0.05982400000000	-65.13945900000000	791.65486199999998	-51.54898700000000	0.10665200000000	0.00000000000000	-0.11785400000000	0.00000000000000	-10.97706000000000	0.00000000000000	0.00000000000000	-23.88006100000000	0.00000000000000	
3.17665000000000	-8.84580300000000	69.76453500000000	-15.81400100000000	0.35301700000000	0.00000000000000	0.06018000000000	-65.90329400000000	789.46472000000006	-51.19028600000000	0.10576800000000	0.00000000000000	-0.11782400000000	0.00000000000000	-11.82349700000000	0.00000000000000	0.00000000000000	-23.88651500000000	0.00000000000000	
3.17832000000000	-8.90380500000000	76.45714599999999	-16.63588500000000	0.35787400000000	0.00000000000000	0.06051800000000	-66.67604500000000	787.18116999999995	-50.81506100000000	0.10489700000000	0.00000000000000	-0.11779100000000	0.00000000000000	-12.55293600000000	0.00000000000000	0.00000000000000	-23.89496800000000	0.00000000000000	
3.17999200000000	-8.79788900000000	82.95436500000000	-17.28634000000000	0.36239900000000	0.00000000000000	0.06084200000000	-67.45724400000000	784.80254300000001	-50.42298900000000	0.10404100000000	0.00000000000000	-0.11775300000000	0.00000000000000	-13.16222100000000	0.00000000000000	0.00000000000000	-23.90540200000000	0.00000000000000	
3.18165700000000	-8.53724000000000	89.25956499999999	-17.77233700000000	0.36663000000000	0.00000000000000	0.06115400000000	-68.24635400000000	782.32709199999999	-50.01375400000000	0.10320000000000	0.00000000000000	-0.11771000000000	0.00000000000000	-13.65424000000000	0.00000000000000	0.00000000000000	-23.91778300000000	0.00000000000000	
3.18332200000000	-8.13537400000000	95.39543700000000	-18.10687400000000	0.37059600000000	0.00000000000000	0.06145500000000	-69.04277500000001	779.75299800000005	-49.58705100000000	0.10237400000000	0.00000000000000	-0.11766400000000	0.00000000000000	-14.03676000000000	0.00000000000000	0.00000000000000	-23.93206100000000	0.00000000000000	
3.18499100000000	-7.60859400000000	101.39912400000000	-18.30709900000000	0.37432500000000	0.00000000000000	0.06174600000000	-69.84583600000001	777.07836899999995	-49.14258400000000	0.10156400000000	0.00000000000000	-0.11761300000000	0.00000000000000	-14.32106900000000	0.00000000000000	0.00000000000000	-23.94816700000000	0.00000000000000	
3.18665800000000	-6.97447400000000	107.31702000000000	-18.39241800000000	0.37783900000000	0.00000000000000	0.06203000000000	-70.65479800000000	774.30123900000001	-48.68007500000000	0.10077000000000	0.00000000000000	-0.11755700000000	0.00000000000000	-14.52055600000000	0.00000000000000	0.00000000000000	-23.96601200000000	0.00000000000000	
3.18832200000000	-6.25050700000000	113.19970800000000	-18.38274200000000	0.38115700000000	0.00000000000000	0.06230500000000	-71.46885300000000	771.41956900000002	-48.19925800000000	0.09999400000000	0.00000000000000	-0.11749700000000	0.00000000000000	-14.64937200000000	0.00000000000000	0.00000000000000	-23.98549000000000	0.00000000000000	
3.18998600000000	-5.45298900000000	119.09742000000000	-18.29700400000000	0.38429600000000	0.00000000000000	0.06257500000000	-72.28712000000000	768.43125299999997	-47.69989000000000	0.09923400000000	0.00000000000000	-0.11743100000000	0.00000000000000	-14.72125400000000	0.00000000000000	0.00000000000000	-24.00647400000000	0.00000000000000	
3.19165200000000	-4.59618300000000	125.05628900000001	-18.15200300000000	0.38726900000000	0.00000000000000	0.06283800000000	-73.10864800000000	765.33411799999999	-47.18174600000000	0.09849300000000	0.00000000000000	-0.11736100000000	0.00000000000000	-14.74858400000000	0.00000000000000	0.00000000000000	-24.02881900000000	0.00000000000000	
3.19331800000000	-3.69179100000000	131.11554200000000	-17.96161100000000	0.39009100000000	0.00000000000000	0.06309600000000	-73.93241399999999	762.12593000000004	-46.64462500000000	0.09777000000000	0.00000000000000	-0.11728600000000	0.00000000000000	-14.74172000000000	0.00000000000000	0.00000000000000	-24.05235800000000	0.00000000000000	
3.19498600000000	-2.74870300000000	137.30567500000001	-17.73633900000000	0.39277100000000	0.00000000000000	0.06335000000000	-74.75732400000000	758.80439500000000	-46.08835200000000	0.09706600000000	0.00000000000000	-0.11720500000000	0.00000000000000	-14.70859800000000	0.00000000000000	0.00000000000000	-24.07690500000000	0.00000000000000	
3.19665500000000	-1.77300600000000	143.64758800000001	-17.48324000000000	0.39531900000000	0.00000000000000	0.06359900000000	-75.58221300000000	755.36716699999999	-45.51278100000000	0.09638100000000	0.00000000000000	-0.11711900000000	0.00000000000000	-14.65459100000000	0.00000000000000	0.00000000000000	-24.10225400000000	0.00000000000000	
3.19832400000000	-0.76820000000000	150.15255700000000	-17.20607800000000	0.39774400000000	0.00000000000000	0.06384500000000	-76.40584200000001	751.81185500000004	-44.91779700000000	0.09571500000000	0.00000000000000	-0.11702800000000	0.00000000000000	-14.58259000000000	0.00000000000000	0.00000000000000	-24.12817800000000	0.00000000000000	
3.19998500000000	0.26443300000000	156.82289499999999	-16.90571900000000	0.40005200000000	0.00000000000000	0.06408600000000	-77.22690500000000	748.13602400000002	-44.30331700000000	0.09506900000000	0.00000000000000	-0.11693200000000	0.00000000000000	-14.49325800000000	0.00000000000000	0.00000000000000	-24.15443100000000	0.00000000000000	
3.20165400000000	1.32536000000000	163.65313300000000	-16.58066600000000	0.40225100000000	0.00000000000000	0.06432500000000	-78.04402399999999	744.33721000000003	-43.66929300000000	0.09444300000000	0.00000000000000	-0.11683000000000	0.00000000000000	-14.38541300000000	0.00000000000000	0.00000000000000	-24.18074500000000	0.00000000000000	
